# xmcd
#
# Track frame offsets:
#	150
#	13909
#	30880
#	46948
#	64827
#	79140
#	95772
#	112197
#	126749
#	145666
#	159903
#	171158
#	185704
#	200105
#	213835
#	227947
#	243516
#	259537
#	275520
#
# Disc length: 3901 seconds
# Revision: 2
# Processed by: cddbd v1.5.2PL0 Copyright (c) Steve Scherf et al.
# Submitted via: dBpowerAMP V12.0
#
DISCID=190f3b13
DTITLE=Various Artist - Promo Only-Country
DYEAR=2015
DGENRE=Country
TTITLE0=The Swon Brothers - I See You
TTITLE1=Rascal Flatts - Riot
TTITLE2=Sam Hunt - Take Your Time (Radio Edit)
TTITLE3=Sam Hunt - Take Your Time (Album Version)
TTITLE4=Steven Lee Olsen - Raised By A Good Time
TTITLE5=Josh Dorr - Save Your Breath
TTITLE6=Brantley Gilbert - One Hell Of An Amen
TTITLE7=Jason Aldean - Just Gettin' Started
TTITLE8=Logan Mize - Can't Get Away From A Good Time
TTITLE9=Kristy Lee Cook - Lookin' For A Cowgirl
TTITLE10=Rodney Atkins - Eat Sleep Love You Repeat
TTITLE11=Haley and Michaels f./Richie McDonald - Just Another Love Song
TTITLE12=Sara Evans (Duet from Nashville on ABC) - Put My Heart Down
TTITLE13=Florida Georgia Line - Sun Daze
TTITLE14=Gloriana - Trouble (Clean)
TTITLE15=Chase Rice - Gonna Wanna Tonight (Radio Edit)
TTITLE16=Chase Rice - Gonna Wanna Tonight (Album Version)
TTITLE17=The Swon Brothers - Pray For You (Radio Edit)
TTITLE18=The Swon Brothers - Pray For You (Album Version)
EXTD=
EXTT0=
EXTT1=
EXTT2=
EXTT3=
EXTT4=
EXTT5=
EXTT6=
EXTT7=
EXTT8=
EXTT9=
EXTT10=
EXTT11=
EXTT12=
EXTT13=
EXTT14=
EXTT15=
EXTT16=
EXTT17=
EXTT18=
PLAYORDER=
